# xmcd CD database file
#
# Track frame offsets:
#	225
#	13459
#	29146
#	44920
#	65346
#	74776
#	92800
#	102622
#	119072
#	133497
#	139206
#	155465
#	166712
#	182079
#	199875
#	213363
#	230332
#	240379
#	254703
#	265732
#
# Disc length: 3773 seconds
#
# Revision: 19
# Processed by: cddbd v1.5PL3 Copyright (c) Steve Scherf et al.
# Submitted via: CDex 1.51
#
DISCID=470eba14
DTITLE=Various Artist - For The Good Times
DYEAR=1999
DGENRE=Country
TTITLE0=Mountain Music
TTITLE1=The Rose
TTITLE2=Rhinestone Cowboy
TTITLE3=Since I Fell For You
TTITLE4=Put Your Hand In The Hand
TTITLE5=We've Got Tonight
TTITLE6=Southern Nights
TTITLE7=Don't It Make My Brown Eyes Blue
TTITLE8=Friends And Lovers
TTITLE9=Take This Job And Shove It
TTITLE10=The Wind Beneath My Wings
TTITLE11=A Long And Lasting Love
TTITLE12=Behind Closed Doors
TTITLE13=Always On My Mind
TTITLE14=I Believe In Music
TTITLE15=I'll Still Be Loving You
TTITLE16=Snowbird
TTITLE17=The Most Beautiful Girl In The World
TTITLE18=The Gambler
TTITLE19=For The Good Times
EXTD=YEAR: 1999
EXTT0=
EXTT1=
EXTT2=
EXTT3=
EXTT4=
EXTT5=
EXTT6=
EXTT7=
EXTT8=
EXTT9=
EXTT10=
EXTT11=
EXTT12=
EXTT13=
EXTT14=
EXTT15=
EXTT16=
EXTT17=
EXTT18=
EXTT19=
PLAYORDER=
